<svg width="435" height="159" viewBox="0 0 435 159" fill="none" xmlns="http://www.w3.org/2000/svg">
<path d="M7.4502 22.4193C7.4502 12.1502 15.7749 3.8255 26.044 3.8255H34.1013V79.6468H26.044C15.7749 79.6468 7.4502 71.322 7.4502 61.053V22.4193Z" fill="#DEDEDE"/>
<path d="M37.6138 3.8255H45.6711C55.9401 3.8255 64.2648 12.1502 64.2648 22.4193V36.8811C64.2648 37.7939 63.5249 38.5339 62.6121 38.5339H39.2665C38.3537 38.5339 37.6138 37.7939 37.6138 36.8811V3.8255Z" fill="#DEDEDE"/>
<path d="M37.6138 48.6572C37.6138 47.7444 38.3537 47.0044 39.2665 47.0044H62.6121C63.5249 47.0044 64.2648 47.7444 64.2648 48.6572V93.854C64.2648 94.9899 63.1453 95.7873 62.0717 95.4159L38.7262 87.34C38.0604 87.1097 37.6138 86.4826 37.6138 85.778V83.882V71.5895V48.6572Z" fill="#DEDEDE"/>
<path d="M91.2749 86.5C87.4273 86.5 84.0927 85.7732 81.2711 84.3197C78.4495 82.8376 76.2549 80.8568 74.6874 78.3772C73.1483 75.8977 72.3788 73.1758 72.3788 70.2117V44.2189C72.3788 41.2263 73.1483 38.5044 74.6874 36.0534C76.2549 33.5738 78.4495 31.6072 81.2711 30.1537C84.0927 28.6716 87.4273 27.9306 91.2749 27.9306H104.442C108.29 27.9306 111.625 28.6716 114.446 30.1537C117.296 31.6072 119.491 33.5738 121.03 36.0534C122.569 38.5044 123.338 41.2263 123.338 44.2189V70.2117C123.338 73.1758 122.569 75.8977 121.03 78.3772C119.491 80.8568 117.296 82.8376 114.446 84.3197C111.625 85.7732 108.29 86.5 104.442 86.5H91.2749ZM91.7452 67.1336H109.401V62.602H96.2768V31.7782H91.7452V67.1336ZM141.893 86.5C138.045 86.5 134.71 85.7732 131.889 84.3197C129.067 82.8376 126.873 80.8568 125.305 78.3772C123.766 75.8977 122.996 73.1758 122.996 70.2117V44.2189C122.996 41.2263 123.766 38.5044 125.305 36.0534C126.873 33.5738 129.067 31.6072 131.889 30.1537C134.71 28.6716 138.045 27.9306 141.893 27.9306H155.06C158.908 27.9306 162.242 28.6716 165.064 30.1537C167.914 31.6072 170.108 33.5738 171.648 36.0534C173.187 38.5044 173.956 41.2263 173.956 44.2189V70.2117C173.956 73.1758 173.187 75.8977 171.648 78.3772C170.108 80.8568 167.914 82.8376 165.064 84.3197C162.242 85.7732 158.908 86.5 155.06 86.5H141.893ZM138.472 67.1336H163.183V62.602H153.136V36.3099H163.183V31.7782H138.472V36.3099H148.562V62.602H138.472V67.1336ZM192.51 86.5C188.663 86.5 185.328 85.7732 182.506 84.3197C179.685 82.8376 177.49 80.8568 175.923 78.3772C174.384 75.8977 173.614 73.1758 173.614 70.2117V44.2189C173.614 41.2263 174.384 38.5044 175.923 36.0534C177.49 33.5738 179.685 31.6072 182.506 30.1537C185.328 28.6716 188.663 27.9306 192.51 27.9306H205.678C209.525 27.9306 212.86 28.6716 215.681 30.1537C218.532 31.6072 220.726 33.5738 222.265 36.0534C223.804 38.5044 224.574 41.2263 224.574 44.2189V70.2117C224.574 73.1758 223.804 75.8977 222.265 78.3772C220.726 80.8568 218.532 82.8376 215.681 84.3197C212.86 85.7732 209.525 86.5 205.678 86.5H192.51ZM199.179 67.1336H203.754V36.3099H213.8V31.7782H189.09V36.3099H199.179V67.1336ZM243.128 86.5C239.28 86.5 235.946 85.7732 233.124 84.3197C230.302 82.8376 228.108 80.8568 226.54 78.3772C225.001 75.8977 224.232 73.1758 224.232 70.2117V44.2189C224.232 41.2263 225.001 38.5044 226.54 36.0534C228.108 33.5738 230.302 31.6072 233.124 30.1537C235.946 28.6716 239.28 27.9306 243.128 27.9306H256.295C260.143 27.9306 263.477 28.6716 266.299 30.1537C269.149 31.6072 271.344 33.5738 272.883 36.0534C274.422 38.5044 275.191 41.2263 275.191 44.2189V70.2117C275.191 73.1758 274.422 75.8977 272.883 78.3772C271.344 80.8568 269.149 82.8376 266.299 84.3197C263.477 85.7732 260.143 86.5 256.295 86.5H243.128ZM245.436 67.1336H255.739L260.741 66.5351L259.673 61.918L255.654 62.602H245.693L242.871 62.1745L242.273 59.6094V39.046L242.7 36.6946L245.693 36.2244H255.483L259.886 36.9511L260.741 32.3767L255.739 31.7782H245.436L241.033 32.2912L238.34 35.0273L237.698 38.6185V60.3362L238.34 63.9273L241.119 66.6206L245.436 67.1336ZM293.745 86.5C289.898 86.5 286.563 85.7732 283.742 84.3197C280.92 82.8376 278.725 80.8568 277.158 78.3772C275.619 75.8977 274.849 73.1758 274.849 70.2117V44.2189C274.849 41.2263 275.619 38.5044 277.158 36.0534C278.725 33.5738 280.92 31.6072 283.742 30.1537C286.563 28.6716 289.898 27.9306 293.745 27.9306H306.913C310.761 27.9306 314.095 28.6716 316.917 30.1537C319.767 31.6072 321.961 33.5738 323.5 36.0534C325.039 38.5044 325.809 41.2263 325.809 44.2189V70.2117C325.809 73.1758 325.039 75.8977 323.5 78.3772C321.961 80.8568 319.767 82.8376 316.917 84.3197C314.095 85.7732 310.761 86.5 306.913 86.5H293.745ZM289.043 67.1336H293.574V51.2301H311.359V67.1336H315.805V31.7782H311.359V46.7412H293.574V31.7782H289.043V67.1336ZM344.363 86.5C340.515 86.5 337.181 85.7732 334.359 84.3197C331.538 82.8376 329.343 80.8568 327.776 78.3772C326.237 75.8977 325.467 73.1758 325.467 70.2117V44.2189C325.467 41.2263 326.237 38.5044 327.776 36.0534C329.343 33.5738 331.538 31.6072 334.359 30.1537C337.181 28.6716 340.515 27.9306 344.363 27.9306H357.531C361.378 27.9306 364.713 28.6716 367.534 30.1537C370.384 31.6072 372.579 33.5738 374.118 36.0534C375.657 38.5044 376.427 41.2263 376.427 44.2189V70.2117C376.427 73.1758 375.657 75.8977 374.118 78.3772C372.579 80.8568 370.384 82.8376 367.534 84.3197C364.713 85.7732 361.378 86.5 357.531 86.5H344.363ZM346.201 65.7656H356.975L361.977 65.1243L360.908 60.5072L356.889 61.1912H346.501L343.765 60.7637L343.166 58.1986V49.3918H363.131V38.6185L362.49 35.0273L359.796 32.2912L355.478 31.7782H346.201L341.926 32.2912L339.233 35.0273L338.592 38.6185V58.9254L339.233 62.5165L341.926 65.2098L346.201 65.7656ZM343.166 44.9029V39.1315L343.508 36.6946L346.501 36.2244H355.222L358.129 36.6946L358.557 39.217V44.9029H343.166ZM394.981 86.5C391.133 86.5 387.798 85.7732 384.977 84.3197C382.155 82.8376 379.961 80.8568 378.393 78.3772C376.854 75.8977 376.085 73.1758 376.085 70.2117V44.2189C376.085 41.2263 376.854 38.5044 378.393 36.0534C379.961 33.5738 382.155 31.6072 384.977 30.1537C387.798 28.6716 391.133 27.9306 394.981 27.9306H408.148C411.996 27.9306 415.33 28.6716 418.152 30.1537C421.002 31.6072 423.197 33.5738 424.736 36.0534C426.275 38.5044 427.044 41.2263 427.044 44.2189V70.2117C427.044 73.1758 426.275 75.8977 424.736 78.3772C423.197 80.8568 421.002 82.8376 418.152 84.3197C415.33 85.7732 411.996 86.5 408.148 86.5H394.981ZM390.278 67.1336H409.345L413.749 66.6206L416.442 63.9273L417.04 60.2507V38.704L416.442 35.1128L413.749 32.3767L409.345 31.7782H390.278V67.1336ZM394.724 62.602V36.3099H409.089L412.081 36.7801L412.509 39.3025V59.7804L411.91 62.1745L409.089 62.602H394.724Z" fill="#DEDEDE"/>
<path d="M27.9492 128.809L25.2598 133.098L24.8027 132.781C25.0137 132.43 25.1191 132.166 25.1191 131.99C25.1191 131.627 24.4922 131.111 23.2383 130.443C20.8242 129.131 18.3516 128.475 15.8203 128.475C12.8789 128.475 10.4004 129.301 8.38477 130.953C6.07617 132.828 4.92188 135.359 4.92188 138.547C4.92188 141.652 6.02344 144.125 8.22656 145.965C10.2539 147.664 12.8438 148.514 15.9961 148.514C17.6602 148.514 19.2422 148.256 20.7422 147.74C22.2539 147.213 23.5254 146.48 24.5566 145.543V141.113H18.8789C18.3867 141.113 18.0352 141.189 17.8242 141.342C17.625 141.494 17.4727 141.793 17.3672 142.238H16.8047V137.703H17.3672C17.4727 138.148 17.625 138.447 17.8242 138.6C18.0352 138.752 18.3867 138.828 18.8789 138.828H28.3184V139.391C27.873 139.508 27.5742 139.666 27.4219 139.865C27.2695 140.064 27.1934 140.41 27.1934 140.902V144.014C27.1934 144.506 27.2695 144.852 27.4219 145.051C27.5742 145.25 27.873 145.408 28.3184 145.525V146.018C26.9941 147.201 25.7461 148.121 24.5742 148.777C22.0312 150.207 19.1309 150.922 15.873 150.922C11.8652 150.922 8.625 149.838 6.15234 147.67C4.93359 146.604 3.9668 145.326 3.25195 143.838C2.44336 142.139 2.03906 140.346 2.03906 138.459C2.03906 135.752 2.83008 133.35 4.41211 131.252C5.87695 129.318 7.8457 127.906 10.3184 127.016C12.0645 126.395 13.9395 126.084 15.9434 126.084C17.7012 126.084 19.3301 126.295 20.8301 126.717C22.3301 127.139 23.9473 127.836 25.6816 128.809C26.1855 129.09 26.4961 129.23 26.6133 129.23C26.8008 129.23 27.0879 128.984 27.4746 128.492L27.9492 128.809ZM46.3535 144.963H36.0352L34.541 148.268C34.3535 148.678 34.2598 148.982 34.2598 149.182C34.2598 149.58 34.5645 149.861 35.1738 150.025V150.5H30.3223V150.025C30.791 149.943 31.1543 149.762 31.4121 149.48C31.6816 149.188 31.998 148.637 32.3613 147.828L38.8828 133.66C39.2461 132.875 39.4277 132.336 39.4277 132.043C39.4277 131.633 39.1348 131.381 38.5488 131.287V130.812H44.2617V131.287C43.6758 131.416 43.3828 131.668 43.3828 132.043C43.3828 132.266 43.6172 132.893 44.0859 133.924L50.3438 147.547C50.7656 148.449 51.1289 149.07 51.4336 149.41C51.7383 149.75 52.125 149.955 52.5938 150.025V150.5H47.4609V150.025C48.0117 149.908 48.2871 149.709 48.2871 149.428C48.2871 149.287 48.1465 148.9 47.8652 148.268L46.3535 144.963ZM45.5273 143.047L41.2207 133.414L36.8789 143.047H45.5273ZM66.2168 150.5L57.8496 133.906V148.514C57.8496 148.994 57.9258 149.34 58.0781 149.551C58.2305 149.75 58.5293 149.908 58.9746 150.025V150.5H54.6328V150.025C55.0781 149.908 55.377 149.75 55.5293 149.551C55.6816 149.34 55.7578 148.994 55.7578 148.514V132.799C55.7578 132.307 55.6816 131.961 55.5293 131.762C55.377 131.562 55.0781 131.404 54.6328 131.287V130.812H60.6094V131.287C60.0234 131.463 59.7305 131.721 59.7305 132.061C59.7305 132.201 59.877 132.57 60.1699 133.168L66.3926 145.754L72.6504 133.168C72.9316 132.605 73.0723 132.236 73.0723 132.061C73.0723 131.721 72.7793 131.463 72.1934 131.287V130.812H78.2227V131.287C77.7773 131.404 77.4785 131.568 77.3262 131.779C77.1738 131.979 77.0977 132.318 77.0977 132.799V148.514C77.0977 148.994 77.1738 149.34 77.3262 149.551C77.4785 149.75 77.7773 149.908 78.2227 150.025V150.5H73.459V150.025C73.9043 149.908 74.2031 149.75 74.3555 149.551C74.5078 149.34 74.584 148.994 74.584 148.514V133.906L66.2168 150.5ZM86.1152 141.289V148.584H98.2793C98.7715 148.584 99.1172 148.508 99.3164 148.355C99.5273 148.203 99.6855 147.898 99.791 147.441H100.283V151.625H99.791C99.6855 151.18 99.5332 150.881 99.334 150.729C99.1348 150.576 98.7891 150.5 98.2969 150.5H82.4766V150.025C82.9336 149.908 83.2324 149.75 83.373 149.551C83.5254 149.34 83.6016 148.994 83.6016 148.514V132.799C83.6016 132.307 83.5254 131.961 83.373 131.762C83.2207 131.562 82.9219 131.404 82.4766 131.287V130.812H98.1738C98.666 130.812 99.0117 130.736 99.2109 130.584C99.4102 130.432 99.5684 130.133 99.6855 129.688H100.16V133.871H99.6855C99.5684 133.414 99.4102 133.109 99.2109 132.957C99.0117 132.805 98.666 132.729 98.1738 132.729H86.1152V139.373H93.7969C94.2891 139.373 94.6348 139.297 94.834 139.145C95.0332 138.992 95.1914 138.693 95.3086 138.248H95.7832V142.432H95.3086C95.1914 141.975 95.0273 141.67 94.8164 141.518C94.6172 141.365 94.2773 141.289 93.7969 141.289H86.1152ZM124.312 130.391C127.816 130.391 130.641 131.305 132.785 133.133C135.07 135.066 136.213 137.621 136.213 140.797C136.213 142.777 135.65 144.594 134.525 146.246C132.404 149.363 129.012 150.922 124.348 150.922C120.867 150.922 118.055 150.008 115.91 148.18C113.625 146.234 112.482 143.727 112.482 140.656C112.482 138.582 113.039 136.719 114.152 135.066C115.336 133.32 116.994 132.049 119.127 131.252C120.592 130.701 122.32 130.414 124.312 130.391ZM124.312 132.43C121.453 132.43 119.15 133.309 117.404 135.066C115.881 136.59 115.119 138.453 115.119 140.656C115.119 142.859 115.881 144.723 117.404 146.246C119.15 148.004 121.465 148.883 124.348 148.883C127.23 148.883 129.545 148.004 131.291 146.246C132.814 144.723 133.576 142.895 133.576 140.762C133.576 138.453 132.814 136.555 131.291 135.066C129.533 133.332 127.207 132.453 124.312 132.43ZM147.797 147.705L154.107 133.273C154.283 132.887 154.371 132.553 154.371 132.271C154.371 131.721 154.025 131.393 153.334 131.287V130.812H158.221V131.287C157.717 131.428 157.348 131.639 157.113 131.92C156.891 132.201 156.551 132.863 156.094 133.906L150.082 147.6C149.801 148.244 149.66 148.73 149.66 149.059C149.66 149.574 149.988 149.896 150.645 150.025V150.5H144.562V150.025C145.219 149.885 145.547 149.557 145.547 149.041C145.547 148.725 145.4 148.244 145.107 147.6L138.92 133.906C138.439 132.84 138.088 132.172 137.865 131.902C137.643 131.633 137.279 131.428 136.775 131.287V130.812H142.225V131.287C141.533 131.404 141.188 131.721 141.188 132.236C141.188 132.529 141.275 132.875 141.451 133.273L147.797 147.705ZM164.584 141.289V148.584H176.748C177.24 148.584 177.586 148.508 177.785 148.355C177.996 148.203 178.154 147.898 178.26 147.441H178.752V151.625H178.26C178.154 151.18 178.002 150.881 177.803 150.729C177.604 150.576 177.258 150.5 176.766 150.5H160.945V150.025C161.402 149.908 161.701 149.75 161.842 149.551C161.994 149.34 162.07 148.994 162.07 148.514V132.799C162.07 132.307 161.994 131.961 161.842 131.762C161.689 131.562 161.391 131.404 160.945 131.287V130.812H176.643C177.135 130.812 177.48 130.736 177.68 130.584C177.879 130.432 178.037 130.133 178.154 129.688H178.629V133.871H178.154C178.037 133.414 177.879 133.109 177.68 132.957C177.48 132.805 177.135 132.729 176.643 132.729H164.584V139.373H172.266C172.758 139.373 173.104 139.297 173.303 139.145C173.502 138.992 173.66 138.693 173.777 138.248H174.252V142.432H173.777C173.66 141.975 173.496 141.67 173.285 141.518C173.086 141.365 172.746 141.289 172.266 141.289H164.584ZM186.064 141.588V148.514C186.064 148.994 186.141 149.34 186.293 149.551C186.445 149.75 186.744 149.908 187.189 150.025V150.5H182.426V150.025C182.883 149.908 183.182 149.75 183.322 149.551C183.475 149.34 183.551 148.994 183.551 148.514V132.799C183.551 132.307 183.475 131.961 183.322 131.762C183.17 131.562 182.871 131.404 182.426 131.287V130.812H194.115C195.439 130.812 196.518 130.906 197.35 131.094C198.193 131.281 198.926 131.598 199.547 132.043C200.906 133.004 201.586 134.41 201.586 136.262C201.586 137.773 201.111 138.969 200.162 139.848C199.213 140.715 197.818 141.236 195.979 141.412L200.918 149.252C201.094 149.533 201.264 149.727 201.428 149.832C201.604 149.926 201.908 150.002 202.342 150.061V150.5H197.473V150.025C197.93 149.932 198.158 149.785 198.158 149.586C198.158 149.445 198.023 149.164 197.754 148.742L193.219 141.588H186.064ZM186.064 139.672H193.553C194.76 139.672 195.662 139.631 196.26 139.549C196.869 139.455 197.385 139.291 197.807 139.057C198.732 138.541 199.195 137.645 199.195 136.367C199.195 135.137 198.762 134.211 197.895 133.59C197.098 133.016 195.744 132.729 193.834 132.729H186.064V139.672ZM228.428 144.963H218.109L216.615 148.268C216.428 148.678 216.334 148.982 216.334 149.182C216.334 149.58 216.639 149.861 217.248 150.025V150.5H212.396V150.025C212.865 149.943 213.229 149.762 213.486 149.48C213.756 149.188 214.072 148.637 214.436 147.828L220.957 133.66C221.32 132.875 221.502 132.336 221.502 132.043C221.502 131.633 221.209 131.381 220.623 131.287V130.812H226.336V131.287C225.75 131.416 225.457 131.668 225.457 132.043C225.457 132.266 225.691 132.893 226.16 133.924L232.418 147.547C232.84 148.449 233.203 149.07 233.508 149.41C233.812 149.75 234.199 149.955 234.668 150.025V150.5H229.535V150.025C230.086 149.908 230.361 149.709 230.361 149.428C230.361 149.287 230.221 148.9 229.939 148.268L228.428 144.963ZM227.602 143.047L223.295 133.414L218.953 143.047H227.602ZM239.924 133.889V148.514C239.924 148.994 239.994 149.34 240.135 149.551C240.287 149.75 240.592 149.908 241.049 150.025V150.5H236.707V150.025C237.164 149.908 237.463 149.75 237.604 149.551C237.756 149.34 237.832 148.994 237.832 148.514V132.799C237.832 132.307 237.756 131.961 237.604 131.762C237.451 131.562 237.152 131.404 236.707 131.287V130.812H243.105V131.287C242.496 131.486 242.191 131.791 242.191 132.201C242.191 132.553 242.414 132.975 242.859 133.467L254.479 146.475V132.799C254.479 132.307 254.402 131.961 254.25 131.762C254.098 131.562 253.799 131.404 253.354 131.287V130.812H257.695V131.287C257.25 131.404 256.951 131.562 256.799 131.762C256.646 131.961 256.57 132.307 256.57 132.799V148.514C256.57 148.994 256.641 149.34 256.781 149.551C256.934 149.75 257.238 149.908 257.695 150.025V150.5H252.545V150.025C253.154 149.873 253.459 149.633 253.459 149.305C253.459 149.059 253.178 148.619 252.615 147.986L239.924 133.889ZM263.039 148.514V132.799C263.039 132.318 262.963 131.979 262.811 131.779C262.67 131.568 262.371 131.404 261.914 131.287V130.812H271.863C274.523 130.812 276.504 131.123 277.805 131.744C279.422 132.529 280.688 133.83 281.602 135.646C282.398 137.217 282.797 138.887 282.797 140.656C282.797 142.73 282.27 144.635 281.215 146.369C280.301 147.881 279.141 148.947 277.734 149.568C276.34 150.189 274.383 150.5 271.863 150.5H261.914V150.025C262.371 149.908 262.67 149.75 262.811 149.551C262.963 149.34 263.039 148.994 263.039 148.514ZM265.553 148.584H271.723C274.055 148.584 275.76 148.268 276.838 147.635C278.033 146.943 278.924 145.854 279.51 144.365C279.943 143.24 280.16 142.004 280.16 140.656C280.16 138.254 279.545 136.332 278.314 134.891C277.635 134.105 276.791 133.549 275.783 133.221C274.787 132.893 273.434 132.729 271.723 132.729H265.553V148.584ZM311.73 140.182C314.039 141.119 315.193 142.73 315.193 145.016C315.193 146.68 314.607 148.01 313.436 149.006C312.779 149.557 312.023 149.943 311.168 150.166C310.312 150.389 309.17 150.5 307.74 150.5H295.559V150.025C296.004 149.908 296.303 149.75 296.455 149.551C296.607 149.34 296.684 148.994 296.684 148.514V132.799C296.684 132.307 296.607 131.961 296.455 131.762C296.303 131.562 296.004 131.404 295.559 131.287V130.812H307.371C308.602 130.812 309.598 130.895 310.359 131.059C311.121 131.211 311.783 131.475 312.346 131.85C313.025 132.283 313.559 132.881 313.945 133.643C314.344 134.404 314.543 135.213 314.543 136.068C314.543 137.873 313.605 139.244 311.73 140.182ZM299.197 139.25H306.668C307.852 139.25 308.719 139.209 309.27 139.127C309.832 139.033 310.336 138.857 310.781 138.6C311.684 138.096 312.135 137.281 312.135 136.156C312.135 134.902 311.613 133.977 310.57 133.379C310.113 133.121 309.598 132.951 309.023 132.869C308.461 132.775 307.605 132.729 306.457 132.729H299.197V139.25ZM299.197 148.584H307.037C308.279 148.584 309.193 148.537 309.779 148.443C310.365 148.338 310.893 148.139 311.361 147.846C312.311 147.248 312.785 146.316 312.785 145.051C312.785 143.633 312.234 142.59 311.133 141.922C310.664 141.629 310.125 141.43 309.516 141.324C308.918 141.219 308.016 141.166 306.809 141.166H299.197V148.584ZM322.506 141.289V148.584H334.67C335.162 148.584 335.508 148.508 335.707 148.355C335.918 148.203 336.076 147.898 336.182 147.441H336.674V151.625H336.182C336.076 151.18 335.924 150.881 335.725 150.729C335.525 150.576 335.18 150.5 334.688 150.5H318.867V150.025C319.324 149.908 319.623 149.75 319.764 149.551C319.916 149.34 319.992 148.994 319.992 148.514V132.799C319.992 132.307 319.916 131.961 319.764 131.762C319.611 131.562 319.312 131.404 318.867 131.287V130.812H334.564C335.057 130.812 335.402 130.736 335.602 130.584C335.801 130.432 335.959 130.133 336.076 129.688H336.551V133.871H336.076C335.959 133.414 335.801 133.109 335.602 132.957C335.402 132.805 335.057 132.729 334.564 132.729H322.506V139.373H330.188C330.68 139.373 331.025 139.297 331.225 139.145C331.424 138.992 331.582 138.693 331.699 138.248H332.174V142.432H331.699C331.582 141.975 331.418 141.67 331.207 141.518C331.008 141.365 330.668 141.289 330.188 141.289H322.506ZM350.367 141.816V148.514C350.367 148.994 350.438 149.34 350.578 149.551C350.73 149.75 351.035 149.908 351.492 150.025V150.5H346.729V150.025C347.174 149.908 347.473 149.75 347.625 149.551C347.777 149.34 347.854 148.994 347.854 148.514V141.816L341.789 133.906C341.051 132.934 340.506 132.289 340.154 131.973C339.803 131.656 339.387 131.428 338.906 131.287V130.812H344.461V131.287C343.945 131.369 343.688 131.592 343.688 131.955C343.688 132.283 343.846 132.652 344.162 133.062L349.348 139.865L354.041 133.08C354.369 132.6 354.533 132.236 354.533 131.99C354.533 131.592 354.27 131.357 353.742 131.287V130.812H358.875V131.287C358.348 131.463 357.861 131.768 357.416 132.201C356.971 132.623 356.361 133.373 355.588 134.451L350.367 141.816ZM370.617 130.391C374.121 130.391 376.945 131.305 379.09 133.133C381.375 135.066 382.518 137.621 382.518 140.797C382.518 142.777 381.955 144.594 380.83 146.246C378.709 149.363 375.316 150.922 370.652 150.922C367.172 150.922 364.359 150.008 362.215 148.18C359.93 146.234 358.787 143.727 358.787 140.656C358.787 138.582 359.344 136.719 360.457 135.066C361.641 133.32 363.299 132.049 365.432 131.252C366.896 130.701 368.625 130.414 370.617 130.391ZM370.617 132.43C367.758 132.43 365.455 133.309 363.709 135.066C362.186 136.59 361.424 138.453 361.424 140.656C361.424 142.859 362.186 144.723 363.709 146.246C365.455 148.004 367.77 148.883 370.652 148.883C373.535 148.883 375.85 148.004 377.596 146.246C379.119 144.723 379.881 142.895 379.881 140.762C379.881 138.453 379.119 136.555 377.596 135.066C375.838 133.332 373.512 132.453 370.617 132.43ZM389.479 133.889V148.514C389.479 148.994 389.549 149.34 389.689 149.551C389.842 149.75 390.146 149.908 390.604 150.025V150.5H386.262V150.025C386.719 149.908 387.018 149.75 387.158 149.551C387.311 149.34 387.387 148.994 387.387 148.514V132.799C387.387 132.307 387.311 131.961 387.158 131.762C387.006 131.562 386.707 131.404 386.262 131.287V130.812H392.66V131.287C392.051 131.486 391.746 131.791 391.746 132.201C391.746 132.553 391.969 132.975 392.414 133.467L404.033 146.475V132.799C404.033 132.307 403.957 131.961 403.805 131.762C403.652 131.562 403.354 131.404 402.908 131.287V130.812H407.25V131.287C406.805 131.404 406.506 131.562 406.354 131.762C406.201 131.961 406.125 132.307 406.125 132.799V148.514C406.125 148.994 406.195 149.34 406.336 149.551C406.488 149.75 406.793 149.908 407.25 150.025V150.5H402.1V150.025C402.709 149.873 403.014 149.633 403.014 149.305C403.014 149.059 402.732 148.619 402.17 147.986L389.479 133.889ZM412.594 148.514V132.799C412.594 132.318 412.518 131.979 412.365 131.779C412.225 131.568 411.926 131.404 411.469 131.287V130.812H421.418C424.078 130.812 426.059 131.123 427.359 131.744C428.977 132.529 430.242 133.83 431.156 135.646C431.953 137.217 432.352 138.887 432.352 140.656C432.352 142.73 431.824 144.635 430.77 146.369C429.855 147.881 428.695 148.947 427.289 149.568C425.895 150.189 423.938 150.5 421.418 150.5H411.469V150.025C411.926 149.908 412.225 149.75 412.365 149.551C412.518 149.34 412.594 148.994 412.594 148.514ZM415.107 148.584H421.277C423.609 148.584 425.314 148.268 426.393 147.635C427.588 146.943 428.479 145.854 429.064 144.365C429.498 143.24 429.715 142.004 429.715 140.656C429.715 138.254 429.1 136.332 427.869 134.891C427.189 134.105 426.346 133.549 425.338 133.221C424.342 132.893 422.988 132.729 421.277 132.729H415.107V148.584Z" fill="white"/>
</svg>
